<svg xmlns="http://www.w3.org/2000/svg" fill="none" viewBox="0 0 128 128"><path fill="#FF5E00" d="M19.17 48.38h4.53L7.58 82.9H3.05l16.12-34.52Zm30.97 13.15-8.47 4.57 8.49 4.61-1.8 3.12L40.32 69v8.96H36.7v-8.94a1605.64 1605.64 0 0 0-8.01 4.82l-1.79-3.12 8.51-4.6-8.49-4.58 1.77-3.14 8.01 4.82v-8.94h3.63v8.94a781.3 781.3 0 0 1 8.02-4.82l1.79 3.14Zm26.5 21.37V87h-25.3v-4.1h25.3Zm24.11-21.37-8.47 4.57 8.5 4.61-1.81 3.12L90.95 69v8.96h-3.63v-8.94a1605.64 1605.64 0 0 0-8.02 4.82l-1.79-3.12 8.52-4.6-8.5-4.58 1.77-3.14 8.02 4.82v-8.94h3.63v8.94a781.3 781.3 0 0 1 8.02-4.82l1.78 3.14Zm19.65-13.15h4.53L108.8 82.9h-4.53l16.12-34.52Z"/></svg>
